<?xml version="1.0" encoding="UTF-8"?>
<svg version="1.1" xmlns="http://www.w3.org/2000/svg" width="225" height="225">
<path d="M0 0 C74.25 0 148.5 0 225 0 C225 74.25 225 148.5 225 225 C150.75 225 76.5 225 0 225 C0 150.75 0 76.5 0 0 Z " fill="#FEFEFE" transform="translate(0,0)"/>
<path d="M0 0 C1.17755859 0.56525391 2.35511719 1.13050781 3.56835938 1.71289062 C4.17107666 2.0086499 4.77379395 2.30440918 5.39477539 2.60913086 C7.23802 3.51159084 9.08980073 4.39434337 10.94335938 5.27539062 C21.80546505 10.54240837 21.80546505 10.54240837 24.55078125 14.19921875 C25.15104381 17.25770813 25.09711065 20.27790359 25.06835938 23.38647461 C25.07536865 24.31537003 25.08237793 25.24426544 25.08959961 26.2013092 C25.10720754 29.27253091 25.09554577 32.34283138 25.08203125 35.4140625 C25.08472558 37.54871294 25.08860751 39.68336219 25.09362793 41.81800842 C25.09952697 46.29277221 25.09094759 50.76721668 25.07226562 55.24194336 C25.04948991 60.97664568 25.06258822 66.71059865 25.08655548 72.4452734 C25.10101411 76.85394428 25.09640687 81.26243772 25.08604431 85.67111397 C25.0833765 87.78541719 25.08664867 89.89973653 25.09596252 92.01402092 C25.10612738 94.97063691 25.09062678 97.92604246 25.06835938 100.88256836 C25.0764563 101.7559787 25.08455322 102.62938904 25.09289551 103.52926636 C25.03659469 107.5666636 24.87758427 109.67541725 22.69577026 113.17243958 C20.12835529 115.59836491 17.65208832 116.97361318 14.46484375 118.49609375 C13.28664063 119.06199219 12.1084375 119.62789063 10.89453125 120.2109375 C10.28351563 120.49630371 9.6725 120.78166992 9.04296875 121.07568359 C7.18114034 121.94671158 5.33058954 122.83879077 3.48046875 123.734375 C-6.96927464 128.69686231 -6.96927464 128.69686231 -12.44921875 129.19921875 C-16.24075008 127.46693061 -19.08864428 124.88550066 -22.13671875 122.07421875 C-23.01328125 121.27113281 -23.88984375 120.46804687 -24.79296875 119.640625 C-25.66953125 118.83496094 -26.54609375 118.02929688 -27.44921875 117.19921875 C-29.01042531 115.80193888 -30.57292451 114.40610195 -32.13671875 113.01171875 C-36.50192178 109.08786326 -40.79128168 105.08723167 -45.07421875 101.07421875 C-50.11830005 96.34992071 -55.20300998 91.69924903 -60.44921875 87.19921875 C-61.95034633 85.88800853 -63.45034966 84.57551009 -64.94921875 83.26171875 C-65.61953125 82.67519531 -66.28984375 82.08867187 -66.98046875 81.484375 C-67.46515625 81.06027344 -67.94984375 80.63617188 -68.44921875 80.19921875 C-72.6504449 81.64051531 -75.70314453 83.73004991 -79.19921875 86.44921875 C-87.61402767 92.84571557 -87.61402767 92.84571557 -90.38671875 94.82421875 C-91.05574219 95.31148438 -91.72476563 95.79875 -92.4140625 96.30078125 C-95.23293249 97.54519602 -96.56434014 97.23458929 -99.44921875 96.19921875 C-101.90625 94.30859375 -101.90625 94.30859375 -104.26171875 91.94921875 C-105.44701172 90.79679687 -105.44701172 90.79679687 -106.65625 89.62109375 C-108.44921875 87.19921875 -108.44921875 87.19921875 -108.8984375 84.61328125 C-108.3591063 81.71496226 -107.60608573 80.79813719 -105.44921875 78.82421875 C-104.81371094 78.23511719 -104.17820312 77.64601563 -103.5234375 77.0390625 C-102.83894531 76.43191406 -102.15445313 75.82476562 -101.44921875 75.19921875 C-100.75441406 74.56113281 -100.05960938 73.92304687 -99.34375 73.265625 C-96.17343943 70.40461302 -93.36206028 67.97778308 -89.44921875 66.19921875 C-89.44921875 65.53921875 -89.44921875 64.87921875 -89.44921875 64.19921875 C-88.45921875 63.20921875 -88.45921875 63.20921875 -87.44921875 62.19921875 C-88.18527344 61.60753906 -88.92132813 61.01585938 -89.6796875 60.40625 C-90.65550781 59.61605469 -91.63132812 58.82585937 -92.63671875 58.01171875 C-93.59964844 57.23441406 -94.56257813 56.45710938 -95.5546875 55.65625 C-98.34151717 53.29064154 -100.90447065 50.82121046 -103.44921875 48.19921875 C-103.98289062 47.66296875 -104.5165625 47.12671875 -105.06640625 46.57421875 C-108.47775749 42.84503976 -108.47775749 42.84503976 -108.34375 39.8125 C-107.22681622 36.54949258 -105.68279353 34.83212594 -103.26171875 32.38671875 C-102.50503906 31.59652344 -101.74835938 30.80632812 -100.96875 29.9921875 C-97.89984821 27.80827134 -96.13550215 27.8417933 -92.44921875 28.19921875 C-92.44921875 28.85921875 -92.44921875 29.51921875 -92.44921875 30.19921875 C-91.91039063 30.43898437 -91.3715625 30.67875 -90.81640625 30.92578125 C-87.82679004 32.53405664 -85.26892441 34.51033477 -82.57421875 36.57421875 C-80.54197585 38.12828685 -78.50027186 39.67006211 -76.44921875 41.19921875 C-75.43601563 41.99585938 -74.4228125 42.7925 -73.37890625 43.61328125 C-70.6127026 45.50371781 -70.6127026 45.50371781 -67.875 44.7421875 C-65.0432487 42.94099303 -62.94632404 40.94818443 -60.63671875 38.51171875 C-49.37462186 26.91394088 -49.37462186 26.91394088 -43.44921875 24.19921875 C-43.44921875 23.53921875 -43.44921875 22.87921875 -43.44921875 22.19921875 C-42.15625 20.89453125 -42.15625 20.89453125 -40.26171875 19.32421875 C-37.50165434 16.98877964 -34.80019707 14.61423212 -32.1640625 12.140625 C-31.30687622 11.3369751 -31.30687622 11.3369751 -30.43237305 10.51708984 C-29.29145656 9.44383442 -28.1535101 8.36741152 -27.01879883 7.28759766 C-24.28165 4.72366516 -21.78468936 2.8591609 -18.44921875 1.19921875 C-18.11921875 0.20921875 -17.78921875 -0.78078125 -17.44921875 -1.80078125 C-12.12885265 -5.89337056 -5.34896503 -2.57148601 0 0 Z " fill="#1886D0" transform="translate(154.44921875,49.80078125)"/>
<path d="M0 0 C5.01297249 0.52599656 8.91304732 1.62004137 13.44921875 3.80078125 C14.62677734 4.36603516 15.80433594 4.93128906 17.01757812 5.51367188 C17.62029541 5.80943115 18.2230127 6.10519043 18.84399414 6.40991211 C20.68723875 7.31237209 22.53901948 8.19512462 24.39257812 9.07617188 C35.2546838 14.34318962 35.2546838 14.34318962 38 18 C38.60026256 21.05848938 38.5463294 24.07868484 38.51757812 27.18725586 C38.5245874 28.11615128 38.53159668 29.04504669 38.53881836 30.00209045 C38.55642629 33.07331216 38.54476452 36.14361263 38.53125 39.21484375 C38.53394433 41.34949419 38.53782626 43.48414344 38.54284668 45.61878967 C38.54874572 50.09355346 38.54016634 54.56799793 38.52148438 59.04272461 C38.49870866 64.77742693 38.51180697 70.5113799 38.53577423 76.24605465 C38.55023286 80.65472553 38.54562562 85.06321897 38.53526306 89.47189522 C38.53259525 91.58619844 38.53586742 93.70051778 38.54518127 95.81480217 C38.55534613 98.77141816 38.53984553 101.72682371 38.51757812 104.68334961 C38.52567505 105.55675995 38.53377197 106.43017029 38.54211426 107.33004761 C38.48581344 111.36744485 38.32680302 113.4761985 36.14498901 116.97322083 C33.57757404 119.39914616 31.10130707 120.77439443 27.9140625 122.296875 C26.73585937 122.86277344 25.55765625 123.42867188 24.34375 124.01171875 C23.42722656 124.43976807 23.42722656 124.43976807 22.4921875 124.87646484 C20.63035909 125.74749283 18.77980829 126.63957202 16.9296875 127.53515625 C11.57618598 130.07748503 6.92421918 132.25544422 1 133 C1.47808105 132.14873535 1.95616211 131.2974707 2.44873047 130.42041016 C6.65602445 121.14370436 6.04658202 106.94734053 4 97 C1.20182372 91.61128596 -3.63118513 88.9352132 -8.85693359 86.18457031 C-12.44814662 84.19954347 -15.61663004 81.66816232 -18.875 79.1875 C-20.11104914 78.28599408 -21.34926205 77.38744582 -22.58984375 76.4921875 C-26.80501393 73.42852997 -30.91932944 70.24020725 -35 67 C-31.69942877 63.57386356 -28.3365485 60.62140158 -24.5 57.8125 C-23.45199219 57.03777344 -22.40398437 56.26304688 -21.32421875 55.46484375 C-20.77942871 55.06249512 -20.23463867 54.66014648 -19.67333984 54.24560547 C-16.8624474 52.15322536 -14.08724251 50.01496249 -11.3125 47.875 C-9.82169922 46.72644531 -9.82169922 46.72644531 -8.30078125 45.5546875 C-7.79393799 45.1436377 -7.28709473 44.73258789 -6.76489258 44.30908203 C-5 43 -5 43 -2.6315918 41.68701172 C0.13761491 39.99200266 1.9999499 38.57168263 4 36 C5.04882624 31.46370379 5.0907399 27.11991114 4.89868164 22.50195312 C4.8123601 20.37154723 4.79617131 18.24918622 4.79101562 16.1171875 C4.73370078 7.2697346 4.73370078 7.2697346 0 0 Z " fill="#3AA8F1" transform="translate(141,46)"/>
<path d="M0 0 C3.2297237 4.84458555 2.48840943 10.46961251 2.53540039 16.14135742 C2.56229615 18.29616794 2.63718397 20.44603857 2.71289062 22.59960938 C2.90748938 32.54838899 2.90748938 32.54838899 0.68969727 36.09594727 C-1.11436082 37.66501759 -2.92904873 38.80936965 -5 40 C-6.33916233 41.02178764 -7.66576712 42.06020701 -8.98046875 43.11328125 C-10.38101167 44.18205148 -11.78340876 45.24839564 -13.1875 46.3125 C-13.92637451 46.87428955 -14.66524902 47.4360791 -15.42651367 48.01489258 C-16.91471656 49.14543657 -18.40371572 50.27493323 -19.89355469 51.40332031 C-21.80985513 52.85587072 -23.72191209 54.31379617 -25.6328125 55.7734375 C-26.68210937 56.57007813 -27.73140625 57.36671875 -28.8125 58.1875 C-29.72644531 58.88230469 -30.64039062 59.57710937 -31.58203125 60.29296875 C-33.69886858 61.78740803 -35.5817863 63.07463704 -38 64 C-40.75 63.125 -40.75 63.125 -43 62 C-43 61.01 -43 60.02 -43 59 C-44.65 58.67 -46.3 58.34 -48 58 C-48 57.34 -48 56.68 -48 56 C-48.99 56 -49.98 56 -51 56 C-51 55.01 -51 54.02 -51 53 C-51.78375 52.855625 -52.5675 52.71125 -53.375 52.5625 C-56 52 -56 52 -58 51 C-57.49746474 47.13635231 -56.87907803 45.40618489 -53.8125 43 C-48.90116741 38.98326351 -44.33102742 34.651946 -39.74926758 30.26757812 C-35.21902127 26 -35.21902127 26 -33 26 C-33 25.34 -33 24.68 -33 24 C-31.70703125 22.6953125 -31.70703125 22.6953125 -29.8125 21.125 C-27.05243559 18.78956089 -24.35097832 16.41501337 -21.71484375 13.94140625 C-20.85765747 13.13775635 -20.85765747 13.13775635 -19.9831543 12.31787109 C-18.84223781 11.24461567 -17.70429135 10.16819277 -16.56958008 9.08837891 C-13.83243125 6.52444641 -11.33547061 4.65994215 -8 3 C-7.67 2.01 -7.34 1.02 -7 0 C-4.27584084 -1.36207958 -2.87220643 -0.86166193 0 0 Z " fill="#2E80B8" transform="translate(144,48)"/>
<path d="M0 0 C0 19.47 0 38.94 0 59 C-5.61834862 56.75266055 -5.61834862 56.75266055 -8.2421875 54.56640625 C-9.11834717 53.84819702 -9.11834717 53.84819702 -10.01220703 53.11547852 C-10.62692871 52.60299561 -11.24165039 52.0905127 -11.875 51.5625 C-17.76658985 46.73697242 -23.77404657 42.14580344 -29.98779297 37.74243164 C-33.68403608 35.09082331 -36.86818851 32.30317476 -40 29 C-32.73801094 23.40511104 -25.46778569 17.8210642 -18.1875 12.25 C-17.495354 11.71995361 -16.80320801 11.18990723 -16.09008789 10.64379883 C-14.74039474 9.61152904 -13.38926932 8.58112889 -12.03662109 7.55273438 C-10.61253275 6.46699931 -9.19401783 5.37393248 -7.77978516 4.27539062 C-7.06483887 3.72560547 -6.34989258 3.17582031 -5.61328125 2.609375 C-4.64515503 1.85865723 -4.64515503 1.85865723 -3.6574707 1.09277344 C-2 0 -2 0 0 0 Z " fill="#FAFCFC" transform="translate(146,83)"/>
<path d="M0 0 C0.33 0.66 0.66 1.32 1 2 C1.66 2.28875 2.32 2.5775 3 2.875 C5 4 5 4 5.75 6.125 C5.87375 7.053125 5.87375 7.053125 6 8 C6.99 8 7.98 8 9 8 C9.04125 8.5775 9.0825 9.155 9.125 9.75 C10.42853331 13.10194279 13.04092628 14.11122954 16 16 C16 16.66 16 17.32 16 18 C13.8651768 19.66708104 11.73038256 21.22042533 9.5 22.75 C8.20759378 23.64867694 6.9159226 24.54841192 5.625 25.44921875 C4.99851562 25.88540527 4.37203125 26.3215918 3.7265625 26.77099609 C1.00434822 28.70872611 -1.58901283 30.80406021 -4.15625 32.94140625 C-6.87671223 34.50336656 -8.85580547 34.9408986 -12 35 C-14.7734375 33.0859375 -14.7734375 33.0859375 -17.375 30.375 C-18.24898437 29.49585938 -19.12296875 28.61671875 -20.0234375 27.7109375 C-22 25 -22 25 -22.4765625 22.375 C-21.90387816 19.52096655 -21.1320223 18.57618113 -19 16.625 C-18.36449219 16.03589844 -17.72898437 15.44679688 -17.07421875 14.83984375 C-16.04748047 13.92912109 -16.04748047 13.92912109 -15 13 C-14.30519531 12.36191406 -13.61039063 11.72382812 -12.89453125 11.06640625 C-9.72422068 8.20539427 -6.91284153 5.77856433 -3 4 C-3 3.34 -3 2.68 -3 2 C-2.01 1.34 -1.02 0.68 0 0 Z " fill="#1772B0" transform="translate(68,112)"/>
<path d="M0 0 C0.66 0.33 1.32 0.66 2 1 C2.08131463 2.43655854 2.13933559 3.8744483 2.1875 5.3125 C2.22230469 6.11300781 2.25710937 6.91351563 2.29296875 7.73828125 C1.93256507 10.52059766 0.99343154 11.13213895 -1 13 C-1 13.99 -1 14.98 -1 16 C2.63 16 6.26 16 10 16 C9.34 16.33 8.68 16.66 8 17 C8 17.99 8 18.98 8 20 C8.66 20 9.32 20 10 20 C10 21.32 10 22.64 10 24 C12.64 24 15.28 24 18 24 C17.34 24.33 16.68 24.66 16 25 C16.33 25.99 16.66 26.98 17 28 C15.68 27.67 14.36 27.34 13 27 C12.34 28.32 11.68 29.64 11 31 C0.98773006 22.20927062 0.98773006 22.20927062 -3 18 C-3.47695313 17.51789063 -3.95390625 17.03578125 -4.4453125 16.5390625 C-6.54212358 14.28183964 -7.9303273 12.67930883 -8.25 9.5625 C-6.32312458 5.6124054 -3.22874568 2.92526045 0 0 Z " fill="#278ED3" transform="translate(54,80)"/>
<path d="M0 0 C5.04295329 0.52631122 8.9571216 1.64154996 13.51953125 3.8359375 C14.70611328 4.40570313 15.89269531 4.97546875 17.11523438 5.5625 C17.72197998 5.86027344 18.32872559 6.15804687 18.95385742 6.46484375 C20.81909104 7.37822756 22.6928641 8.27197207 24.56835938 9.1640625 C33.74210132 13.61315199 33.74210132 13.61315199 36 17 C33.00519083 17.8723412 30.36424089 18.10829766 27.25 18.0625 C26.45078125 18.05347656 25.6515625 18.04445313 24.828125 18.03515625 C24.22484375 18.02355469 23.6215625 18.01195313 23 18 C22.67 16.68 22.34 15.36 22 14 C21.01 14 20.02 14 19 14 C19 12.68 19 11.36 19 10 C17.95199219 10.10828125 17.95199219 10.10828125 16.8828125 10.21875 C15.97273437 10.3115625 15.06265625 10.404375 14.125 10.5 C12.76761719 10.63921875 12.76761719 10.63921875 11.3828125 10.78125 C9 11 9 11 7 11 C6.67 13.31 6.34 15.62 6 18 C5.67 18 5.34 18 5 18 C4.97421875 17.11957031 4.9484375 16.23914063 4.921875 15.33203125 C4.86515625 14.17058594 4.8084375 13.00914063 4.75 11.8125 C4.70359375 10.66394531 4.6571875 9.51539063 4.609375 8.33203125 C3.91174 4.51739886 2.62748409 2.79038811 0 0 Z " fill="#52B2F1" transform="translate(141,46)"/>
<path d="M0 0 C2.29013653 3.4352048 2.17842973 4.985331 2 9 C1.01 9.495 1.01 9.495 0 10 C-0.33 8.68 -0.66 7.36 -1 6 C-1.66 6.66 -2.32 7.32 -3 8 C-4.64991582 8.70710678 -6.31562256 9.37943989 -8 10 C-8 11.65 -8 13.3 -8 15 C-8.33 14.34 -8.66 13.68 -9 13 C-9.99 13.99 -10.98 14.98 -12 16 C-12.268125 15.360625 -12.53625 14.72125 -12.8125 14.0625 C-13.88667752 11.66868314 -13.88667752 11.66868314 -17 11 C-16.07038578 9.84775972 -15.1309875 8.70340824 -14.1875 7.5625 C-13.40439453 6.60537109 -13.40439453 6.60537109 -12.60546875 5.62890625 C-11 4 -11 4 -8 3 C-7.67 2.01 -7.34 1.02 -7 0 C-4.27584084 -1.36207958 -2.87220643 -0.86166193 0 0 Z M-11 9 C-11.33 9.66 -11.66 10.32 -12 11 C-11.34 11 -10.68 11 -10 11 C-10.33 10.34 -10.66 9.68 -11 9 Z " fill="#418BBE" transform="translate(144,48)"/>
<path d="M0 0 C0.33 0 0.66 0 1 0 C1 14.85 1 29.7 1 45 C1.66 45 2.32 45 3 45 C3 48.3 3 51.6 3 55 C3.99 55.33 4.98 55.66 6 56 C6 56.99 6 57.98 6 59 C5.34 59 4.68 59 4 59 C4 59.66 4 60.32 4 61 C1 60 1 60 0 59 C-0.09381302 57.15881971 -0.11743954 55.31402359 -0.11352539 53.47045898 C-0.11344986 52.28931015 -0.11337433 51.10816132 -0.11329651 49.89122009 C-0.10813522 48.6058284 -0.10297394 47.32043671 -0.09765625 45.99609375 C-0.0962413 44.68794205 -0.09482635 43.37979034 -0.09336853 42.03199768 C-0.0895441 38.54837141 -0.07971446 35.06478661 -0.06866455 31.58117676 C-0.05844882 28.02873292 -0.05387056 24.47628241 -0.04882812 20.92382812 C-0.03809212 13.94920168 -0.0210166 6.97460283 0 0 Z " fill="#209FEF" transform="translate(146,83)"/>
<path d="M0 0 C0.886875 0.185625 1.77375 0.37125 2.6875 0.5625 C5.85178811 0.98042484 7.94839642 0.80777742 11 0 C12.06351675 3.38391693 12.21442982 4.5804634 10.5625 7.8125 C10.046875 8.534375 9.53125 9.25625 9 10 C4.59885603 9.49701212 2.28804981 7.91227269 -1 5 C-0.67 3.35 -0.34 1.7 0 0 Z " fill="#027CCD" transform="translate(134,168)"/>
<path d="M0 0 C3.02602778 1.64061747 5.02922147 3.54778736 7.40625 6.03125 C8.59154297 7.25714844 8.59154297 7.25714844 9.80078125 8.5078125 C10.39246094 9.13429687 10.98414062 9.76078125 11.59375 10.40625 C10.93375 11.06625 10.27375 11.72625 9.59375 12.40625 C8.93375 12.07625 8.27375 11.74625 7.59375 11.40625 C7.92375 12.39625 8.25375 13.38625 8.59375 14.40625 C6.94375 14.40625 5.29375 14.40625 3.59375 14.40625 C3.92375 12.09625 4.25375 9.78625 4.59375 7.40625 C3.60375 7.73625 2.61375 8.06625 1.59375 8.40625 C1.59375 7.74625 1.59375 7.08625 1.59375 6.40625 C-0.0459375 5.9421875 -0.0459375 5.9421875 -1.71875 5.46875 C-3.96032994 4.82287103 -6.1931851 4.1439383 -8.40625 3.40625 C-3.12357169 -0.77075146 -3.12357169 -0.77075146 0 0 Z " fill="#F2F7F8" transform="translate(86.40625,129.59375)"/>
<path d="M0 0 C-1 3 -1 3 -3 4 C-3 4.99 -3 5.98 -3 7 C-3.99 7.495 -3.99 7.495 -5 8 C-5.33 8.99 -5.66 9.98 -6 11 C-8.375 12.25 -8.375 12.25 -11 13 C-11.99 12.67 -12.98 12.34 -14 12 C-14.99 12 -15.98 12 -17 12 C-17 11.34 -17 10.68 -17 10 C-13.25 8.875 -13.25 8.875 -11 10 C-10.67 9.34 -10.34 8.68 -10 8 C-9.34 8 -8.68 8 -8 8 C-8.061875 7.05125 -8.12375 6.1025 -8.1875 5.125 C-8.125625 4.09375 -8.06375 3.0625 -8 2 C-4.77208445 -0.1519437 -3.71599191 -0.20086443 0 0 Z " fill="#257CB9" transform="translate(120,96)"/>
<path d="M0 0 C0.33 0.66 0.66 1.32 1 2 C1.66 2.28875 2.32 2.5775 3 2.875 C5 4 5 4 5.75 6.125 C5.87375 7.053125 5.87375 7.053125 6 8 C3 7 3 7 2 6 C1.34 6 0.68 6 0 6 C-1 6 -2 6 -3 6 C-3.70074844 9.153368 -4 11.72724974 -4 15 C-4.99 15 -5.98 15 -7 15 C-7.66 14.34 -8.32 13.68 -9 13 C-8.62174846 7.51535266 -3.7264747 3.59338632 0 0 Z " fill="#1D78B6" transform="translate(68,112)"/>
<path d="M0 0 C0.33 0 0.66 0 1 0 C1.11586755 4.43728151 1.18714058 8.87417591 1.25 13.3125 C1.28351563 14.57513672 1.31703125 15.83777344 1.3515625 17.13867188 C1.36445313 18.34716797 1.37734375 19.55566406 1.390625 20.80078125 C1.41157227 21.91622314 1.43251953 23.03166504 1.45410156 24.1809082 C1 27 1 27 -0.85253906 28.93823242 C-3 30 -3 30 -5.75 29.1875 C-6.4925 28.795625 -7.235 28.40375 -8 28 C-8 26.68 -8 25.36 -8 24 C-7.34 24 -6.68 24 -6 24 C-6 24.99 -6 25.98 -6 27 C-5.34 26.67 -4.68 26.34 -4 26 C-4.33 25.34 -4.66 24.68 -5 24 C-3.35 24 -1.7 24 0 24 C0 16.08 0 8.16 0 0 Z " fill="#259FEF" transform="translate(176,136)"/>
<path d="M0 0 C1.50433594 0.01353516 1.50433594 0.01353516 3.0390625 0.02734375 C3.80992187 0.03894531 4.58078125 0.05054688 5.375 0.0625 C2.99253661 2.74375418 0.5204496 4.17673459 -2.6875 5.75 C-3.56535156 6.18699219 -4.44320312 6.62398437 -5.34765625 7.07421875 C-7.625 8.0625 -7.625 8.0625 -9.625 8.0625 C-9.02638258 5.71078869 -8.35575648 3.3765622 -7.625 1.0625 C-4.98041621 -0.25979189 -2.94738699 -0.03427194 0 0 Z " fill="#209FED" transform="translate(159.625,167.9375)"/>
<path d="M0 0 C1.32 0.66 2.64 1.32 4 2 C3.67 2.66 3.34 3.32 3 4 C2.34 4 1.68 4 1 4 C1 4.66 1 5.32 1 6 C-0.64453125 7.65625 -0.64453125 7.65625 -2.8125 9.5 C-3.52019531 10.1084375 -4.22789063 10.716875 -4.95703125 11.34375 C-7 13 -7 13 -10 15 C-10 13.35 -10 11.7 -10 10 C-9.34 10 -8.68 10 -8 10 C-7.67 9.34 -7.34 8.68 -7 8 C-6 7 -5 6 -4 5 C-2.65263027 3.34466005 -1.31665664 1.67987227 0 0 Z " fill="#E4EFF7" transform="translate(64,110)"/>
<path d="M0 0 C4.97306516 0.49730652 8.63799813 1.55302334 13 4 C12.34 4.66 11.68 5.32 11 6 C9.68 6 8.36 6 7 6 C6.67 9.96 6.34 13.92 6 18 C5.67 18 5.34 18 5 18 C4.97421875 17.11957031 4.9484375 16.23914063 4.921875 15.33203125 C4.86515625 14.17058594 4.8084375 13.00914063 4.75 11.8125 C4.70359375 10.66394531 4.6571875 9.51539063 4.609375 8.33203125 C3.91174 4.51739886 2.62748409 2.79038811 0 0 Z " fill="#5FB8F1" transform="translate(141,46)"/>
<path d="M0 0 C2.31 0 4.62 0 7 0 C6.67 1.65 6.34 3.3 6 5 C6.99 5.33 7.98 5.66 9 6 C9 6.66 9 7.32 9 8 C11.31 8 13.62 8 16 8 C14.8125 9.5625 14.8125 9.5625 13 11 C8.64969678 10.69547877 6.65592893 9.15391468 3.6875 6.0625 C2.99011719 5.35222656 2.29273438 4.64195312 1.57421875 3.91015625 C0 2 0 2 0 0 Z " fill="#1D70A5" transform="translate(47,136)"/>
<path d="M0 0 C0.66 0.33 1.32 0.66 2 1 C2 1.99 2 2.98 2 4 C0.37064759 5.37868281 -1.29749607 6.71274093 -3 8 C-3.33 8.66 -3.66 9.32 -4 10 C-2.68 10.33 -1.36 10.66 0 11 C-2.31 11.33 -4.62 11.66 -7 12 C-7.4375 9.9375 -7.4375 9.9375 -7 7 C-4.87919817 4.42739828 -2.49372439 2.20745501 0 0 Z " fill="#2178B2" transform="translate(53,125)"/>
<path d="M0 0 C1.98 1.65 3.96 3.3 6 5 C5.5359375 5.8971875 5.5359375 5.8971875 5.0625 6.8125 C3.89790296 9.08956772 3.89790296 9.08956772 3 12 C1.0625 11.25 1.0625 11.25 -1 10 C-1.75 7.875 -1.75 7.875 -2 6 C-1.01 6.33 -0.02 6.66 1 7 C0.65213292 5.02463255 0.65213292 5.02463255 0 3 C-0.66 2.67 -1.32 2.34 -2 2 C-1.34 2 -0.68 2 0 2 C0 1.34 0 0.68 0 0 Z " fill="#F5F8F8" transform="translate(58,104)"/>
<path d="M0 0 C1.32 0.33 2.64 0.66 4 1 C4 1.66 4 2.32 4 3 C5.32 3.33 6.64 3.66 8 4 C8 3.67 8 3.34 8 3 C10.64 3 13.28 3 16 3 C15.01 3.495 15.01 3.495 14 4 C14.33 4.99 14.66 5.98 15 7 C13.68 6.67 12.36 6.34 11 6 C10.34 7.32 9.68 8.64 9 10 C7.49410612 8.71520959 5.99542625 7.42195918 4.5 6.125 C3.6646875 5.40570313 2.829375 4.68640625 1.96875 3.9453125 C1.3190625 3.30335937 0.669375 2.66140625 0 2 C0 1.34 0 0.68 0 0 Z " fill="#2990D5" transform="translate(56,101)"/>
<path d="M0 0 C0.66 0 1.32 0 2 0 C2 3.3 2 6.6 2 10 C2.99 10.33 3.98 10.66 5 11 C5 11.99 5 12.98 5 14 C4.34 14 3.68 14 3 14 C3 14.66 3 15.32 3 16 C2.01 15.67 1.02 15.34 0 15 C0 10.05 0 5.1 0 0 Z " fill="#2BA3F1" transform="translate(147,128)"/>
<path d="M0 0 C1.670625 0.061875 1.670625 0.061875 3.375 0.125 C1.88402342 3.9202131 -0.38200849 5.73542731 -3.625 8.125 C-4.285 6.145 -4.945 4.165 -5.625 2.125 C-3.625 0.125 -3.625 0.125 0 0 Z " fill="#EEF7F9" transform="translate(49.625,79.875)"/>
<path d="M0 0 C0.66 0 1.32 0 2 0 C4 3 4 3 4 6 C5.65 6 7.3 6 9 6 C9 6.66 9 7.32 9 8 C8.34 8 7.68 8 7 8 C7 8.66 7 9.32 7 10 C4.04590299 8.62845496 1.55991624 7.01136276 -1 5 C-0.67 3.35 -0.34 1.7 0 0 Z " fill="#117ECA" transform="translate(134,168)"/>
<path d="M0 0 C0.33 1.98 0.66 3.96 1 6 C-2.34249629 5.40312566 -4.46436342 4.26396123 -7 2 C-7 1.34 -7 0.68 -7 0 C-3.98968256 -0.93423645 -3.13349732 -1.04449911 0 0 Z " fill="#EDF7F6" transform="translate(84,89)"/>
<path d="M0 0 C3.65316671 1.24976756 4.78065836 1.67098753 7 5 C3.30458414 5.95024979 0.69541586 5.95024979 -3 5 C-2.01 3.35 -1.02 1.7 0 0 Z " fill="#228BCE" transform="translate(116,121)"/>
<path d="M0 0 C4.67692308 1.47692308 4.67692308 1.47692308 6.3125 4.125 C6.539375 4.74375 6.76625 5.3625 7 6 C4.69 6 2.38 6 0 6 C0 4.02 0 2.04 0 0 Z " fill="#2A91D2" transform="translate(64,82)"/>
<path d="M0 0 C2.97 0.495 2.97 0.495 6 1 C6.33 1.99 6.66 2.98 7 4 C7.66 4.33 8.32 4.66 9 5 C8.67 5.99 8.34 6.98 8 8 C6.66102417 7.04956626 5.32894573 6.08940853 4 5.125 C3.2575 4.59132813 2.515 4.05765625 1.75 3.5078125 C1.1725 3.01023437 0.595 2.51265625 0 2 C0 1.34 0 0.68 0 0 Z " fill="#E7F2F7" transform="translate(65,80)"/>
<path d="M0 0 C1.65 0.33 3.3 0.66 5 1 C5 2.32 5 3.64 5 5 C3.02 5.99 3.02 5.99 1 7 C0.01 5.68 -0.98 4.36 -2 3 C-1.34 2.01 -0.68 1.02 0 0 Z " fill="#F3F6F6" transform="translate(123,120)"/>
<path d="M0 0 C0.99 0 1.98 0 3 0 C3 1.32 3 2.64 3 4 C4.65 4.33 6.3 4.66 8 5 C8.33 6.32 8.66 7.64 9 9 C7.65686601 8.35330586 6.32608822 7.68096422 5 7 C4.0925 6.54625 3.185 6.0925 2.25 5.625 C1.5075 5.08875 0.765 4.5525 0 4 C0 2.68 0 1.36 0 0 Z " fill="#1E81C3" transform="translate(77,120)"/>
<path d="M0 0 C0.66 0.33 1.32 0.66 2 1 C2 3.97 2 6.94 2 10 C-0 8.625 -0 8.625 -2 7 C-2 4.47717345 -1.84805104 1.84805104 0 0 Z " fill="#2E94D6" transform="translate(54,80)"/>
<path d="M0 0 C1.32 0.33 2.64 0.66 4 1 C4 1.66 4 2.32 4 3 C-0.625 5.125 -0.625 5.125 -4 4 C-4.99 4 -5.98 4 -7 4 C-7 3.34 -7 2.68 -7 2 C-3.25 0.875 -3.25 0.875 -1 2 C-0.67 1.34 -0.34 0.68 0 0 Z " fill="#2076AE" transform="translate(110,104)"/>
<path d="M0 0 C1.31611677 0.95336021 2.62778961 1.91285774 3.9375 2.875 C4.66839844 3.40867188 5.39929688 3.94234375 6.15234375 4.4921875 C8 6 8 6 9 8 C3.51219512 7.51219512 3.51219512 7.51219512 1.125 5.125 C0 3 0 3 0 0 Z " fill="#EBF8FC" transform="translate(128,168)"/>
<path d="M0 0 C2 0.75 2 0.75 4 3.75 C-0.75 4.875 -0.75 4.875 -3 3.75 C-2.67 3.09 -2.34 2.43 -2 1.75 C-2.66 1.42 -3.32 1.09 -4 0.75 C-2 -0.25 -2 -0.25 0 0 Z " fill="#1E78B5" transform="translate(77,128.25)"/>
<path d="M0 0 C1.32 0.66 2.64 1.32 4 2 C3.67 2.99 3.34 3.98 3 5 C1.35 5.33 -0.3 5.66 -2 6 C-1.125 1.125 -1.125 1.125 0 0 Z " fill="#0C81D0" transform="translate(138,138)"/>
<path d="M0 0 C2.31 1.65 4.62 3.3 7 5 C5.02 5.99 5.02 5.99 3 7 C2.67 6.01 2.34 5.02 2 4 C1.01 3.67 0.02 3.34 -1 3 C-0.67 2.01 -0.34 1.02 0 0 Z " fill="#EBF2F3" transform="translate(49,96)"/>
<path d="M0 0 C0.66 0.33 1.32 0.66 2 1 C-0.20033965 4.35841315 -2.35989958 6.2709523 -6 8 C-6.99 7.67 -7.98 7.34 -9 7 C-6.03 4.69 -3.06 2.38 0 0 Z " fill="#DDF1F7" transform="translate(140,86)"/>
<path d="M0 0 C1.32 0.33 2.64 0.66 4 1 C4 1.66 4 2.32 4 3 C4.99 3.33 5.98 3.66 7 4 C7.6875 6.0625 7.6875 6.0625 8 8 C6.66102417 7.04956626 5.32894573 6.08940853 4 5.125 C3.2575 4.59132813 2.515 4.05765625 1.75 3.5078125 C1.1725 3.01023437 0.595 2.51265625 0 2 C0 1.34 0 0.68 0 0 Z " fill="#3293C6" transform="translate(56,101)"/>
<path d="M0 0 C0.99 0.33 1.98 0.66 3 1 C3.33 1.99 3.66 2.98 4 4 C2.1875 5.0625 2.1875 5.0625 0 6 C-0.99 5.67 -1.98 5.34 -3 5 C-2.01 3.35 -1.02 1.7 0 0 Z " fill="#279EE6" transform="translate(145,173)"/>
<path d="M0 0 C2.31 0.33 4.62 0.66 7 1 C7 2.65 7 4.3 7 6 C3.63279613 4.60667426 2.0140476 3.0210714 0 0 Z " fill="#0A7BC5" transform="translate(113,153)"/>
<path d="M0 0 C2.31 0 4.62 0 7 0 C7 0.99 7 1.98 7 3 C5.68 3 4.36 3 3 3 C2.01 3.33 1.02 3.66 0 4 C0 2.68 0 1.36 0 0 Z " fill="#0B69A5" transform="translate(64,136)"/>
<path d="M0 0 C3.70488428 0.92622107 5.16604069 1.67210485 8 4 C7.01 5.485 7.01 5.485 6 7 C4.02 4.69 2.04 2.38 0 0 Z " fill="#3691CE" transform="translate(47,93)"/>
<path d="M0 0 C0.66 0.33 1.32 0.66 2 1 C2 2.65 2 4.3 2 6 C-0.97 5.505 -0.97 5.505 -4 5 C-2.68 3.35 -1.36 1.7 0 0 Z " fill="#1F77AC" transform="translate(93,89)"/>
<path d="M0 0 C2.97 0.99 5.94 1.98 9 3 C8.01 4.485 8.01 4.485 7 6 C6.01 5.67 5.02 5.34 4 5 C4 4.34 4 3.68 4 3 C2.68 2.67 1.36 2.34 0 2 C0 1.34 0 0.68 0 0 Z " fill="#5CB3ED" transform="translate(164,56)"/>
<path d="M0 0 C0.99 0.66 1.98 1.32 3 2 C2.67 3.65 2.34 5.3 2 7 C1.01 6.01 0.02 5.02 -1 4 C-0.67 3.34 -0.34 2.68 0 2 C-0.66 1.67 -1.32 1.34 -2 1 C-1.34 0.67 -0.68 0.34 0 0 Z " fill="#EDF4F2" transform="translate(77,134)"/>
<path d="M0 0 C1.32 0.66 2.64 1.32 4 2 C3.67 2.99 3.34 3.98 3 5 C1.35 4.67 -0.3 4.34 -2 4 C-1.34 2.68 -0.68 1.36 0 0 Z " fill="#258DCF" transform="translate(107,114)"/>
<path d="M0 0 C3.91402949 1.26941497 5.79072873 2.51167694 8 6 C6.68 6 5.36 6 4 6 C4 5.01 4 4.02 4 3 C3.01 3 2.02 3 1 3 C0.67 2.01 0.34 1.02 0 0 Z " fill="#E3F1F9" transform="translate(84,129)"/>
</svg>
